<?xml version="1.0" standalone="no"?>
<!DOCTYPE svg PUBLIC "-//W3C//DTD SVG 20010904//EN"
 "http://www.w3.org/TR/2001/REC-SVG-20010904/DTD/svg10.dtd">
<svg version="1.0" xmlns="http://www.w3.org/2000/svg"
 width="160.000000pt" height="160.000000pt" viewBox="0 0 160.000000 160.000000"
 preserveAspectRatio="xMidYMid meet">
<metadata>
Created by potrace 1.11, written by Peter Selinger 2001-2013
</metadata>
<g transform="translate(0.000000,160.000000) scale(0.100000,-0.100000)"
fill="#000000" stroke="none">
<path d="M750 1417 c-41 -10 -109 -57 -110 -74 0 -17 -4 -16 -42 6 -17 11 -35
18 -39 15 -4 -2 -10 0 -13 4 -10 17 -107 2 -146 -23 -39 -25 -90 -88 -90 -112
0 -9 -13 -12 -42 -10 -156 14 -266 -152 -192 -290 20 -38 21 -43 6 -48 -10 -3
-30 -25 -47 -48 l-30 -42 0 -220 c0 -261 3 -273 104 -355 52 -43 69 -44 671
-44 634 0 608 -2 684 64 64 57 83 108 85 238 2 98 6 118 27 156 41 73 26 167
-37 232 -30 31 -30 32 -15 63 74 142 -37 309 -195 295 -32 -3 -38 0 -43 21 -9
35 -53 83 -99 106 -55 28 -122 29 -174 2 l-41 -22 -23 25 c-54 58 -127 80
-199 61z"/>
</g>
</svg>
